<?xml version="1.0" encoding="utf-8"?>
<!-- Generator: Adobe Illustrator 17.0.0, SVG Export Plug-In . SVG Version: 6.00 Build 0)  -->
<!DOCTYPE svg PUBLIC "-//W3C//DTD SVG 1.1//EN" "http://www.w3.org/Graphics/SVG/1.1/DTD/svg11.dtd">
<svg version="1.1" id="Слой_1" xmlns="http://www.w3.org/2000/svg" xmlns:xlink="http://www.w3.org/1999/xlink" x="0px" y="0px"
	 width="24.998px" height="24px" viewBox="0 0 24.998 24" enable-background="new 0 0 24.998 24" xml:space="preserve">
<g>
	<path fill="#404041" d="M12,24C5.383,24,0,18.617,0,12S5.383,0,12,0s12,5.383,12,12S18.617,24,12,24z M12,3c-4.962,0-9,4.038-9,9
		s4.038,9,9,9s9-4.037,9-9S16.962,3,12,3z"/>
	<path fill="#404041" d="M11.991,17.899c-0.006,0-0.012,0-0.018,0c-0.441,0-0.857-0.388-1.138-0.728l-5.002-6.139
		c-0.528-0.638-0.438-1.63,0.2-2.158c0.638-0.528,1.584-0.462,2.112,0.177l3.874,4.672L22.366,1.804
		c0.542-0.625,1.491-0.694,2.116-0.152c0.626,0.543,0.692,1.489,0.149,2.114L13.124,17.199
		C12.839,17.528,12.425,17.899,11.991,17.899z"/>
</g>
</svg>
