<?xml version="1.0" encoding="utf-8"?>
<!-- Generator: Adobe Illustrator 17.0.0, SVG Export Plug-In . SVG Version: 6.00 Build 0)  -->
<!DOCTYPE svg PUBLIC "-//W3C//DTD SVG 1.1//EN" "http://www.w3.org/Graphics/SVG/1.1/DTD/svg11.dtd">
<svg version="1.1" id="Слой_1" xmlns="http://www.w3.org/2000/svg" xmlns:xlink="http://www.w3.org/1999/xlink" x="0px" y="0px"
	 width="70.992px" height="49.055px" viewBox="0 0 70.992 49.055" enable-background="new 0 0 70.992 49.055" xml:space="preserve">
<g>
	<path fill="none" stroke="#F1F1F2" stroke-width="2" stroke-miterlimit="10" d="M6.937,48.055c-0.758,0-0.945-0.62-0.945-1.378
		V32.515c0-0.757,0.188-1.377,0.944-1.376l61.533-0.003c0.758,0.001,1.522,0.623,1.522,1.379v14.157c0,0.76-0.765,1.382-1.522,1.38
		L6.937,48.055z"/>
	<path fill="none" stroke="#F1F1F2" stroke-width="2" stroke-miterlimit="10" d="M4.556,39.961l-0.752-7.672
		c-0.11-0.75,0.412-1.456,1.163-1.567l59.338-8.75c0.752-0.11,1.457,0.414,1.565,1.162l1.016,7.741"/>
	<path fill="none" stroke="#F1F1F2" stroke-width="2" stroke-miterlimit="10" d="M5.05,40.452l-2.577-7.396
		c-0.232-0.722,0.169-1.504,0.892-1.734l56.858-18.177c0.722-0.231,1.504,0.173,1.734,0.893l2.349,7.934"/>
	<path fill="none" stroke="#F1F1F2" stroke-width="2" stroke-miterlimit="10" d="M5.566,42.429l-4.436-8.801
		c-0.322-0.686-0.027-1.512,0.659-1.835L55.407,6.566c0.686-0.324,1.512-0.027,1.836,0.66l2.84,6.167"/>
	<path fill="none" stroke="#F1F1F2" stroke-width="2" stroke-miterlimit="10" d="M4.653,39.311l-3.325-5.714
		c-0.408-0.643-0.22-1.5,0.42-1.907L48.736,1.216c0.639-0.408,1.496-0.221,1.904,0.418l3.933,5.886"/>
	<g>
		<line fill="none" stroke="#F1F1F2" stroke-width="2" stroke-miterlimit="10" x1="17.992" y1="31.616" x2="17.992" y2="47.616"/>
		<line fill="none" stroke="#F1F1F2" stroke-width="2" stroke-miterlimit="10" x1="27.992" y1="31.616" x2="27.992" y2="47.616"/>
		<line fill="none" stroke="#F1F1F2" stroke-width="2" stroke-miterlimit="10" x1="37.992" y1="31.616" x2="37.992" y2="47.616"/>
		
			<line fill="none" stroke="#F1F1F2" stroke-width="1.9272" stroke-miterlimit="10" x1="48.768" y1="31.133" x2="48.767" y2="48.051"/>
		
			<line fill="none" stroke="#F1F1F2" stroke-width="1.9272" stroke-miterlimit="10" x1="59.056" y1="31.132" x2="59.054" y2="48.051"/>
	</g>
	<path fill="none" stroke="#F1F1F2" stroke-width="1.4378" stroke-miterlimit="10" d="M11.074,40.2c0,0.333-0.268,0.604-0.602,0.604
		c-0.33,0-0.601-0.269-0.604-0.603c0.001-0.336,0.269-0.604,0.604-0.605C10.806,39.597,11.077,39.868,11.074,40.2z"/>
</g>
</svg>
