<?xml version="1.0" encoding="utf-8"?>
<!-- Generator: Adobe Illustrator 17.0.0, SVG Export Plug-In . SVG Version: 6.00 Build 0)  -->
<!DOCTYPE svg PUBLIC "-//W3C//DTD SVG 1.1//EN" "http://www.w3.org/Graphics/SVG/1.1/DTD/svg11.dtd">
<svg version="1.1" id="Слой_1" xmlns="http://www.w3.org/2000/svg" xmlns:xlink="http://www.w3.org/1999/xlink" x="0px" y="0px"
	 width="50.991px" height="30px" viewBox="0 0 50.991 30" enable-background="new 0 0 50.991 30" xml:space="preserve">
<g>
	<g>
		<path fill="none" stroke="#404041" stroke-width="2" stroke-miterlimit="10" d="M1.577,29c-0.55,0-0.74-0.552-0.423-1.001
			l2.559-3.901C4.03,23.648,4.739,23,5.289,23h11.863c0.55,0,1.26,0.556,1.578,1.005l2.562,3.9C21.61,28.354,21.42,29,20.87,29
			H1.577z"/>
	</g>
	<g>
		<path fill="none" stroke="#404041" stroke-width="2" stroke-miterlimit="10" d="M49.991,2.443c0-0.55-0.208-1.443-0.758-1.443
			H19.436c-0.55,0-1.342,0.514-1.761,0.87L5.65,12.32c-0.419,0.357-0.659,1.21-0.659,1.76v2.742c0,0.55,0.246,1.178,0.796,1.178
			h9.64c0.55,0,1.407,0.103,1.905,0.337c0,0,3.578,1.641,11.049,1.641c8.779,0,14.367-1.826,14.367-1.826
			c0.523-0.169,0.97-0.768,0.992-1.318l0.104-2.694c0.022-0.55,0.491-1.14,1.041-1.14h4.351c0.55,0,0.758-0.179,0.758-0.728V2.443z"
			/>
	</g>
	<rect x="6.991" y="18" fill="none" stroke="#404041" stroke-width="2" stroke-miterlimit="10" width="9" height="5"/>
	<g>
		<path fill="none" stroke="#404041" stroke-width="2" stroke-miterlimit="10" d="M39.991,15c0,0.552-0.448,1-1,1h-18
			c-0.552,0-1-0.448-1-1v-2c0-0.552,0.448-1,1-1h18c0.552,0,1,0.448,1,1V15z"/>
	</g>
</g>
</svg>
