<?xml version="1.0" encoding="utf-8"?>
<!-- Generator: Adobe Illustrator 17.0.0, SVG Export Plug-In . SVG Version: 6.00 Build 0)  -->
<!DOCTYPE svg PUBLIC "-//W3C//DTD SVG 1.1//EN" "http://www.w3.org/Graphics/SVG/1.1/DTD/svg11.dtd">
<svg version="1.1" id="Слой_1" xmlns="http://www.w3.org/2000/svg" xmlns:xlink="http://www.w3.org/1999/xlink" x="0px" y="0px"
	 width="44.875px" height="54.952px" viewBox="0 0 44.875 54.952" enable-background="new 0 0 44.875 54.952" xml:space="preserve">
<path fill-rule="evenodd" clip-rule="evenodd" fill="none" stroke="#414141" stroke-width="2" stroke-linejoin="round" stroke-miterlimit="10" d="
	M41.02,8.667c-1.593,0-2.73,1.354-2.738,3.586c-0.016,3.772-0.022,12.886-0.022,12.966c0,0.88-0.61,1.677-1.692,1.677
	c-1.053,0-1.693-1.063-1.693-1.677c0-0.089,0-19.904,0-19.904c0-2.167-1.221-3.015-2.605-3.015c-1.141,0-2.443,0.932-2.441,3.015
	c0,0-0.003,17.917-0.003,18.024c0,0.804-0.475,1.677-1.469,1.677c-0.998,0-1.481-0.767-1.481-1.677c0-0.104,0-19.211,0-19.306
	C26.875,2.31,25.79,1,24.114,1c-1.621,0-2.664,1.234-2.664,3.033c0,0.081-0.017,19.236-0.017,19.306c0,0.91-0.245,1.651-1.156,1.651
	c-0.94,0-1.403-0.848-1.403-1.651c0-0.313,0-16.074,0-16.34c0-1.727-1.545-3.11-3.271-3.11s-3.011,1.384-3.011,3.11
	c0,0.24-0.061,27.555-0.061,27.555s-4.464-6.588-4.925-7.083c-0.214-0.233-0.462-0.441-0.712-0.621
	c-1.359-0.982-2.942-1.165-4.399-0.157c-1.483,1.02-1.751,2.561-1.291,4.18c0.229,0.801,0.721,1.54,1.184,2.25
	c2.726,4.168,5.561,8.15,8.199,12.374c3.138,5.022,7.987,8.456,13.396,8.456c0.341,0,8.149,0,8.992,0
	c5.707,0,10.899-6.207,10.899-12.709V11.997C43.875,9.897,42.841,8.667,41.02,8.667z"/>
</svg>
