<?xml version="1.0" encoding="utf-8"?>
<!-- Generator: Adobe Illustrator 17.0.0, SVG Export Plug-In . SVG Version: 6.00 Build 0)  -->
<!DOCTYPE svg PUBLIC "-//W3C//DTD SVG 1.1//EN" "http://www.w3.org/Graphics/SVG/1.1/DTD/svg11.dtd">
<svg version="1.1" id="Слой_1" xmlns="http://www.w3.org/2000/svg" xmlns:xlink="http://www.w3.org/1999/xlink" x="0px" y="0px"
	 width="15.514px" height="15.245px" viewBox="0 0 15.514 15.245" enable-background="new 0 0 15.514 15.245" xml:space="preserve">
<g>
	<path fill-rule="evenodd" clip-rule="evenodd" fill="#FFFFFF" d="M3.857,15.133c-0.148,0-0.299,0.056-0.447,0.021
		c-0.283-0.068-0.486-0.197-0.682-0.394c-0.266-0.267-0.537-0.5-0.783-0.783c-0.281-0.327-0.473-0.686-0.428-1.139
		c0.035-0.346,0.201-0.628,0.422-0.886c0.424-0.491,0.938-0.872,1.502-1.182c0.416-0.228,0.863-0.393,1.34-0.201
		c0.203,0.08,0.393,0.21,0.564,0.346c0.199,0.156,0.377,0.338,0.551,0.521c0.221,0.234,0.48,0.273,0.771,0.188
		c0.367-0.106,0.686-0.304,0.994-0.523c0.787-0.563,1.488-1.224,2.15-1.925c0.394-0.417,0.779-0.846,1.144-1.289
		c0.313-0.378,0.602-0.779,0.773-1.247c0.037-0.101,0.064-0.206,0.086-0.311c0.047-0.242-0.029-0.442-0.205-0.619
		c-0.225-0.225-0.447-0.452-0.65-0.698c-0.307-0.368-0.395-0.789-0.258-1.256c0.133-0.444,0.371-0.831,0.646-1.192
		c0.205-0.269,0.436-0.519,0.668-0.764c0.201-0.21,0.445-0.358,0.723-0.444c0.412-0.129,0.801-0.047,1.146,0.192
		c0.231,0.158,0.441,0.347,0.648,0.534c0.182,0.164,0.34,0.353,0.518,0.518c0.287,0.264,0.4,0.603,0.443,0.972
		c0.057,0.505-0.023,0.999-0.141,1.487c-0.172,0.726-0.461,1.407-0.799,2.065c-0.328,0.644-0.699,1.26-1.135,1.834
		c-0.408,0.535-0.818,1.073-1.271,1.569c-0.518,0.563-1.074,1.09-1.627,1.617c-0.541,0.515-1.139,0.958-1.752,1.381
		c-0.553,0.381-1.129,0.723-1.73,1.018c-0.602,0.292-1.219,0.539-1.871,0.687c-0.228,0.052-0.465-0.04-0.697,0
		c-0.039,0.006-0.078-0.096-0.119-0.096C4.187,15.133,4.021,15.133,3.857,15.133z"/>
	<path fill-rule="evenodd" clip-rule="evenodd" fill="#FFFFFF" d="M8.13,0.133c0.166,0,0.336-0.117,0.498-0.073
		c0.631,0.163,0.83,0.814,0.373,1.278C8.816,1.525,8.573,1.541,8.323,1.509C7.075,1.348,5.972,1.715,4.941,2.376
		C4.21,2.844,3.579,3.417,3.032,4.088C2.497,4.742,2.071,5.456,1.817,6.271C1.64,6.837,1.571,7.415,1.638,8.008
		c0.027,0.255,0.029,0.504-0.131,0.726C1.333,8.978,1.091,9.085,0.8,9.064c-0.305-0.022-0.539-0.171-0.668-0.46
		C0.015,8.34,0.007,8.055,0.001,7.775c-0.02-1.084,0.244-2.104,0.717-3.075c0.352-0.725,0.803-1.38,1.338-1.975
		c0.715-0.798,1.523-1.48,2.463-2.001C5.384,0.245,6.304,0.1,7.29,0c0.039-0.005,0.078,0.133,0.119,0.133
		C7.65,0.133,7.89,0.133,8.13,0.133z"/>
	<path fill-rule="evenodd" clip-rule="evenodd" fill="#FFFFFF" d="M2.982,7.379c0.047-0.188,0.107-0.489,0.195-0.78
		c0.172-0.563,0.438-1.081,0.781-1.557c0.297-0.414,0.648-0.781,1.049-1.1c0.563-0.443,1.184-0.772,1.869-0.974
		c0.217-0.066,0.44-0.116,0.664-0.152C8.187,2.711,8.667,3.283,8.452,3.9c-0.088,0.25-0.277,0.408-0.531,0.48
		C7.63,4.46,7.333,4.519,7.048,4.617c-0.572,0.194-1.039,0.55-1.453,0.985c-0.363,0.382-0.65,0.814-0.818,1.316
		C4.7,7.145,4.651,7.381,4.597,7.614C4.501,8.018,4.265,8.263,3.919,8.314C3.398,8.39,2.993,8.034,2.982,7.379z"/>
</g>
</svg>
