<?xml version="1.0" encoding="utf-8"?>
<!-- Generator: Adobe Illustrator 17.0.0, SVG Export Plug-In . SVG Version: 6.00 Build 0)  -->
<!DOCTYPE svg PUBLIC "-//W3C//DTD SVG 1.1//EN" "http://www.w3.org/Graphics/SVG/1.1/DTD/svg11.dtd">
<svg version="1.1" id="Слой_1" xmlns="http://www.w3.org/2000/svg" xmlns:xlink="http://www.w3.org/1999/xlink" x="0px" y="0px"
	 width="55px" height="45.568px" viewBox="0 0 55 45.568" enable-background="new 0 0 55 45.568" xml:space="preserve">
<g>
	<g>
		<path fill="none" stroke="#404041" stroke-width="2" stroke-miterlimit="10" d="M13,3.45c0-0.57-0.26-0.874-0.794-0.676
			L7.973,4.38c-0.534,0.198-1.364,0.198-1.899,0L1.862,2.775C1.328,2.576,1,2.88,1,3.45v11.375c0,0.57,0.35,0.874,0.885,0.676
			l4.277-1.604c0.534-0.198,1.387-0.198,1.922,0l4.133,1.604C12.751,15.7,13,15.396,13,14.826V3.45z"/>
	</g>
	<g>
		<path fill="none" stroke="#404041" stroke-width="2" stroke-miterlimit="10" d="M19,15.615c0,0.459-0.372,0.831-0.831,0.831
			h-4.338c-0.459,0-0.831-0.372-0.831-0.831V2.277c0-0.459,0.372-0.831,0.831-0.831h4.338C18.628,1.446,19,1.818,19,2.277V15.615z"
			/>
	</g>
	<g>
		<path fill="none" stroke="#404041" stroke-width="2" stroke-miterlimit="10" d="M19,4.879c0-0.536,0.659-1.019,1.192-1.072
			l27.967-2.803C48.693,0.952,49,1.347,49,1.883v3.102c0,0.536-0.185,1.087-0.703,1.223l-7.227,1.931
			c-0.519,0.136-0.447,0.294,0.087,0.35L53.13,9.755C53.663,9.811,54,10.295,54,10.831v4.057c0,0.536-0.309,0.956-0.845,0.932
			l-33.024-1.467C19.596,14.329,19,13.871,19,13.334V4.879z"/>
	</g>
	<g>
		<path fill="none" stroke="#404041" stroke-width="2" stroke-miterlimit="10" d="M38.325,14.862l7.981,26.232
			c0.146,0.48,0.663,0.769,1.148,0.643l4.661-1.214c0.485-0.126,0.832-0.637,0.77-1.135L49.97,15.863"/>
	</g>
	<g>
		<path fill="#404041" d="M6,8.001c0-0.483-0.131-0.999-0.592-1.146L4.467,6.435C4.006,6.288,4,6.563,4,7.047v3.567
			c0,0.483,0.129,0.759,0.59,0.612l0.943-0.419C5.993,10.659,6,10.143,6,9.66V8.001z"/>
	</g>
	<g>
		<path fill="none" stroke="#404041" stroke-width="2" stroke-miterlimit="10" d="M22,14.446v12.709
			c0,0.851,0.415,2.087,0.953,2.747l12.267,15.034"/>
	</g>
	<g>
		<path fill="none" stroke="#404041" stroke-width="2" stroke-miterlimit="10" d="M38.237,42.605l-11.251-13.77
			C26.448,28.176,26,26.928,26,26.077V14.446"/>
	</g>
	<line fill="none" stroke="#404041" stroke-width="2" stroke-miterlimit="10" x1="45.289" y1="38.558" x2="35.183" y2="38.586"/>
	
		<line fill="none" stroke="#404041" stroke-width="2.043" stroke-miterlimit="10" x1="32.142" y1="35.116" x2="44.541" y2="35.092"/>
	
		<line fill="none" stroke="#404041" stroke-width="2" stroke-linecap="round" stroke-miterlimit="10" x1="33" y1="8.446" x2="33" y2="22.446"/>
</g>
</svg>
