<?xml version="1.0" encoding="utf-8"?>
<!-- Generator: Adobe Illustrator 17.0.0, SVG Export Plug-In . SVG Version: 6.00 Build 0)  -->
<!DOCTYPE svg PUBLIC "-//W3C//DTD SVG 1.1//EN" "http://www.w3.org/Graphics/SVG/1.1/DTD/svg11.dtd">
<svg version="1.1" id="Слой_1" xmlns="http://www.w3.org/2000/svg" xmlns:xlink="http://www.w3.org/1999/xlink" x="0px" y="0px"
	 width="52.886px" height="53.77px" viewBox="0 0 52.886 53.77" enable-background="new 0 0 52.886 53.77" xml:space="preserve">
<g>
	<path fill="none" stroke="#404041" stroke-width="6" stroke-miterlimit="10" d="M23.886,16.986V9.898c0,0,0.256-6.898,6.58-6.898
		c6.741,0,6.42,6.898,6.42,6.898v34.854c0,0,0.436,6.018,6.493,6.018c6.057,0,6.507-6.727,6.507-6.727V16.986"/>
	<path fill="none" stroke="#F2F2F2" stroke-width="2" stroke-miterlimit="10" d="M23.886,16.986V9.898c0,0,0.256-6.898,6.58-6.898
		c6.741,0,6.42,6.898,6.42,6.898v34.854c0,0,0.436,6.018,6.493,6.018c6.057,0,6.507-6.727,6.507-6.727V16.986"/>
</g>
<g>
	<path fill="none" stroke="#404041" stroke-width="2" stroke-miterlimit="10" d="M29.886,46.727c0,0.55-0.04,1.26-0.59,1.26H3
		c-0.55,0-1.114-0.71-1.114-1.26V35.111c0-0.55,0.286-1.388,0.565-1.862l3.793-6.388c0.279-0.474,0.224-1.198-0.141-1.61
		l-1.722-1.952c-0.365-0.412-0.531-1.18-0.374-1.707l1.156-3.761c0.157-0.527,0.737-0.845,1.287-0.845h22.847
		c0.55,0,0.59,0.223,0.59,0.773V46.727z"/>
</g>
<circle fill="#F2F2F2" stroke="#404041" stroke-width="2" stroke-miterlimit="10" cx="25.923" cy="47.051" r="4.965"/>
<circle fill="#F2F2F2" stroke="#404041" stroke-width="2" stroke-miterlimit="10" cx="3.841" cy="49.176" r="2.841"/>
<line fill="none" stroke="#404041" stroke-width="2" stroke-miterlimit="10" x1="6.78" y1="26" x2="30.296" y2="30.164"/>
<line fill="none" stroke="#404041" stroke-width="2" stroke-miterlimit="10" x1="2.886" y1="38.986" x2="30.886" y2="38.986"/>
<line fill="none" stroke="#404041" stroke-width="2" stroke-linecap="round" stroke-miterlimit="10" x1="14.886" y1="35.986" x2="14.886" y2="41.986"/>
</svg>
