<?xml version="1.0" encoding="utf-8"?>
<!-- Generator: Adobe Illustrator 17.0.0, SVG Export Plug-In . SVG Version: 6.00 Build 0)  -->
<!DOCTYPE svg PUBLIC "-//W3C//DTD SVG 1.1//EN" "http://www.w3.org/Graphics/SVG/1.1/DTD/svg11.dtd">
<svg version="1.1" id="Слой_1" xmlns="http://www.w3.org/2000/svg" xmlns:xlink="http://www.w3.org/1999/xlink" x="0px" y="0px"
	 width="98.458px" height="33.331px" viewBox="0 0 98.458 33.331" enable-background="new 0 0 98.458 33.331" xml:space="preserve">
<g>
	<g>
		<path fill-rule="evenodd" clip-rule="evenodd" fill="#FFFFFF" d="M27.338,4.689c3.051,0.004,6.103,0.036,9.153-0.01
			c1.654-0.024,2.488,0.723,2.58,2.348c0.016,0.286,0.053,0.578,0.02,0.858c-0.646,5.365,0.073,10.729,0.029,16.093
			c-0.018,2.136-0.782,3.126-3.036,3.095c-5.911-0.081-11.824-0.07-17.735-0.002c-2.235,0.026-3.019-0.926-2.982-3.106
			c0.09-5.435,0.078-10.872,0.002-16.306c-0.031-2.237,0.922-3.069,3.103-2.996C21.424,4.764,24.382,4.688,27.338,4.689z
			 M23.945,24.563c2.461-0.371,5.745-0.047,6.316-1.14c0.945-1.808,0.857-4.959-0.191-6.708c-0.63-1.05-3.904-0.515-6.125-0.702
			C23.945,18.996,23.945,21.428,23.945,24.563z M23.937,13.648c2.466-0.369,4.703-0.334,6.512-1.195
			c0.566-0.269,0.438-4.088-0.171-4.337c-1.856-0.763-4.102-0.578-6.341-0.774C23.937,9.567,23.937,11.248,23.937,13.648z"/>
		<path fill-rule="evenodd" clip-rule="evenodd" fill="#FFFFFF" d="M43.661,27.072c1.315-6.957,2.45-13.518,3.897-20.009
			c0.214-0.954,1.864-2.187,2.915-2.252c4.175-0.261,8.376-0.072,12.567-0.128c1.853-0.025,2.836,0.828,3.163,2.586
			c1.183,6.358,2.368,12.714,3.667,19.682c-2.711,0-5.26,0.045-7.804-0.06c-0.289-0.012-0.764-0.84-0.78-1.302
			c-0.086-2.547-1.482-3.042-3.76-2.93c-2.551,0.125-5.307-0.518-5.424,3.434c-0.009,0.342-1.102,0.898-1.714,0.934
			C48.313,27.146,46.227,27.072,43.661,27.072z M60.051,19.594c-0.697-3.662-1.302-7.096-2.045-10.499
			c-0.127-0.577-0.85-1.024-1.297-1.531c-0.378,0.37-1.006,0.688-1.096,1.118c-0.74,3.57-1.381,7.158-2.083,10.912
			C55.906,19.594,57.84,19.594,60.051,19.594z"/>
		<path fill-rule="evenodd" clip-rule="evenodd" fill="#FFFFFF" d="M74.888,4.861c2.907,0,5.434,0,8.285,0c0,6.41,0,12.67,0,19.162
			c2.35,0,4.383,0,6.815,0c0-6.285,0-12.619,0-19.135c2.917,0,5.446,0,8.449,0c0,1.053,0,2.15,0,3.247
			c0,5.345-0.037,10.692,0.02,16.037c0.021,1.829-0.475,2.917-2.546,2.902c-6.204-0.043-12.41-0.026-18.614-0.008
			c-1.68,0.005-2.421-0.785-2.417-2.448C74.901,18.133,74.888,11.648,74.888,4.861z"/>
		<path fill-rule="evenodd" clip-rule="evenodd" fill="#FFFFFF" d="M8.269,0c0,11.174,0,21.885,0,33.331
			c-2.93-2.186-5.466-3.958-7.826-5.939c-0.477-0.4-0.389-1.59-0.393-2.416C0.022,18.96,0.096,12.943,0.001,6.93
			c-0.027-1.727,0.369-2.846,2.041-3.595C4.033,2.442,5.904,1.283,8.269,0z"/>
	</g>
</g>
</svg>
