<?xml version="1.0" encoding="utf-8"?>
<!-- Generator: Adobe Illustrator 17.0.0, SVG Export Plug-In . SVG Version: 6.00 Build 0)  -->
<!DOCTYPE svg PUBLIC "-//W3C//DTD SVG 1.1//EN" "http://www.w3.org/Graphics/SVG/1.1/DTD/svg11.dtd">
<svg version="1.1" id="Слой_1" xmlns="http://www.w3.org/2000/svg" xmlns:xlink="http://www.w3.org/1999/xlink" x="0px" y="0px"
	 width="167.26px" height="56.623px" viewBox="0 0 167.26 56.623" enable-background="new 0 0 167.26 56.623" xml:space="preserve">
<g>
	<g>
		<path fill-rule="evenodd" clip-rule="evenodd" fill="#A5A8AB" d="M46.443,7.967C51.624,7.974,56.81,8.028,61.991,7.95
			c2.811-0.042,4.228,1.228,4.383,3.988c0.027,0.486,0.09,0.981,0.033,1.456c-1.098,9.115,0.125,18.226,0.051,27.339
			c-0.03,3.628-1.329,5.312-5.158,5.257c-10.042-0.137-20.086-0.119-30.129-0.003c-3.797,0.045-5.129-1.573-5.066-5.276
			c0.152-9.232,0.133-18.471,0.004-27.701c-0.054-3.801,1.565-5.214,5.27-5.09C36.396,8.093,41.421,7.964,46.443,7.967z
			 M40.677,41.727c4.181-0.63,9.76-0.079,10.73-1.936c1.605-3.07,1.457-8.424-0.325-11.396c-1.069-1.783-6.632-0.874-10.405-1.192
			C40.677,32.271,40.677,36.402,40.677,41.727z M40.663,23.187c4.189-0.628,7.99-0.567,11.063-2.03
			c0.963-0.459,0.744-6.945-0.29-7.368c-3.153-1.296-6.968-0.981-10.772-1.315C40.663,16.254,40.663,19.108,40.663,23.187z"/>
		<path fill-rule="evenodd" clip-rule="evenodd" fill="#A5A8AB" d="M74.171,45.99c2.234-11.818,4.162-22.963,6.62-33.99
			c0.363-1.621,3.167-3.715,4.952-3.826c7.092-0.442,14.229-0.122,21.35-0.217c3.146-0.043,4.818,1.406,5.373,4.393
			c2.01,10.801,4.023,21.599,6.23,33.435c-4.605,0-8.936,0.076-13.258-0.102c-0.49-0.02-1.297-1.427-1.325-2.211
			c-0.146-4.327-2.519-5.168-6.388-4.977c-4.332,0.213-9.014-0.879-9.213,5.833c-0.016,0.581-1.872,1.526-2.912,1.586
			C82.073,46.115,78.53,45.99,74.171,45.99z M102.015,33.286c-1.185-6.222-2.211-12.054-3.475-17.835
			c-0.215-0.98-1.443-1.74-2.203-2.601c-0.642,0.629-1.708,1.169-1.861,1.899c-1.257,6.065-2.346,12.16-3.538,18.537
			C94.972,33.286,98.259,33.286,102.015,33.286z"/>
		<path fill-rule="evenodd" clip-rule="evenodd" fill="#A5A8AB" d="M127.22,8.259c4.938,0,9.23,0,14.074,0
			c0,10.89,0,21.524,0,32.553c3.992,0,7.445,0,11.578,0c0-10.677,0-21.438,0-32.507c4.955,0,9.252,0,14.354,0
			c0,1.789,0,3.654,0,5.517c0,9.079-0.063,18.164,0.033,27.244c0.035,3.106-0.807,4.955-4.324,4.931
			c-10.54-0.073-21.083-0.045-31.623-0.014c-2.852,0.008-4.111-1.334-4.105-4.159C127.241,30.805,127.22,19.789,127.22,8.259z"/>
		<path fill-rule="evenodd" clip-rule="evenodd" fill="#A5A8AB" d="M14.047,0c0,18.983,0,37.178,0,56.623
			C9.07,52.91,4.762,49.9,0.752,46.535c-0.81-0.681-0.66-2.701-0.667-4.104C0.037,32.209,0.163,21.988,0.002,11.773
			C-0.044,8.84,0.63,6.938,3.47,5.666C6.851,4.149,10.028,2.181,14.047,0z"/>
	</g>
</g>
</svg>
