<?xml version="1.0" encoding="utf-8"?>
<!-- Generator: Adobe Illustrator 17.0.0, SVG Export Plug-In . SVG Version: 6.00 Build 0)  -->
<!DOCTYPE svg PUBLIC "-//W3C//DTD SVG 1.1//EN" "http://www.w3.org/Graphics/SVG/1.1/DTD/svg11.dtd">
<svg version="1.1" id="Слой_1" xmlns="http://www.w3.org/2000/svg" xmlns:xlink="http://www.w3.org/1999/xlink" x="0px" y="0px"
	 width="109px" height="50px" viewBox="0 0 109 50" enable-background="new 0 0 109 50" xml:space="preserve">
<path fill="#A6A8AB" d="M13.135,22.387v-2.735c0-1.865,0.597-3.407,1.792-4.625s2.753-1.827,4.676-1.827
	c1.909,0,3.462,0.609,4.66,1.827c1.198,1.218,1.797,2.76,1.797,4.625v2.735c0,1.873-0.594,3.416-1.781,4.631
	c-1.188,1.215-2.739,1.822-4.655,1.822c-1.93,0-3.494-0.607-4.692-1.822C13.734,25.803,13.135,24.26,13.135,22.387z M16.664,22.387
	c0,1.1,0.255,1.998,0.766,2.694c0.511,0.696,1.242,1.044,2.194,1.044c0.924,0,1.639-0.348,2.147-1.044
	c0.507-0.696,0.761-1.594,0.761-2.694v-2.756c0-1.086-0.255-1.977-0.766-2.673c-0.511-0.696-1.231-1.044-2.162-1.044
	c-0.952,0-1.68,0.347-2.184,1.039c-0.504,0.693-0.756,1.585-0.756,2.678C16.664,19.631,16.664,22.387,16.664,22.387z"/>
<path fill="#A6A8AB" d="M29.623,22.985v-9.856h3.529v9.856c0,0.94,0.244,1.65,0.732,2.13c0.488,0.48,1.165,0.72,2.029,0.72
	c0.858,0,1.525-0.238,2.003-0.715c0.478-0.477,0.717-1.188,0.717-2.135v-9.856h3.529v9.856c0,1.74-0.577,3.103-1.732,4.087
	c-1.154,0.985-2.66,1.477-4.517,1.477c-1.871,0-3.387-0.492-4.548-1.477C30.203,26.088,29.623,24.725,29.623,22.985z"/>
<path fill="#A6A8AB" d="M45.324,15.844v-2.715H56.82v2.715H52.8l-0.009,12.502h-3.529l0.009-12.502
	C49.271,15.844,45.324,15.844,45.324,15.844z"/>
<rect x="5.152" y="0" fill="#A6A8AB" width="2.811" height="13.115"/>
<rect x="0" y="5.153" fill="#A6A8AB" width="13.116" height="2.81"/>
<path fill="#A6A8AB" d="M13.056,49.446V34.244h3.529v12.487h6.525v2.715H13.056z"/>
<path fill="#A6A8AB" d="M24.253,49.446l4.959-15.202h1.89v0.01l0.01-0.01h1.89l4.97,15.202h-3.717l-0.887-2.955h-4.521l-0.877,2.955
	H24.253z M29.661,43.777h2.892l-1.42-4.719h-0.063L29.661,43.777z"/>
<path fill="#A6A8AB" d="M40.139,49.446V34.244h3.529l5.565,9.553l0.063-0.021v-9.532h3.529v15.202h-3.529l-5.565-9.564l-0.062,0.021
	v9.543L40.139,49.446L40.139,49.446z"/>
<path fill="#A6A8AB" d="M56.8,49.446V34.244h5.56c1.787,0,3.282,0.583,4.485,1.749c1.203,1.166,1.805,2.661,1.805,4.484v2.735
	c0,1.83-0.602,3.327-1.805,4.489c-1.203,1.162-2.698,1.743-4.485,1.743L56.8,49.446L56.8,49.446z M60.329,46.732h2.035
	c0.801,0,1.46-0.327,1.978-0.981c0.519-0.654,0.778-1.5,0.778-2.537v-2.756c0-1.023-0.259-1.862-0.778-2.516
	c-0.519-0.654-1.178-0.981-1.978-0.981h-2.035V46.732z"/>
<path fill="#A6A8AB" d="M72.468,49.446V34.244h3.529v15.202H72.468z"/>
<path fill="#A6A8AB" d="M80.288,49.446V34.244h3.529l5.565,9.553l0.063-0.021v-9.532h3.529v15.202h-3.529l-5.565-9.564l-0.063,0.021
	v9.543L80.288,49.446L80.288,49.446z"/>
<path fill="#A6A8AB" d="M96.753,43.432v-3.174c0-1.831,0.573-3.327,1.719-4.489c1.146-1.162,2.621-1.744,4.425-1.744
	c1.941,0,3.408,0.435,4.402,1.305c0.953,0.835,1.429,1.966,1.429,3.393c0,0.056,0,0.108,0,0.156l-0.021,0.063h-3.309
	c0-0.745-0.198-1.298-0.594-1.66c-0.396-0.362-0.994-0.543-1.792-0.543c-0.82,0-1.479,0.324-1.98,0.971
	c-0.5,0.647-0.75,1.49-0.75,2.527v3.195c0,1.058,0.248,1.909,0.745,2.553c0.497,0.644,1.193,0.966,2.089,0.966
	c0.646,0,1.155-0.052,1.526-0.156s0.665-0.244,0.88-0.418v-2.715h-2.694v-2.339h6.223v6.024c-0.529,0.641-1.273,1.187-2.233,1.639
	c-0.96,0.452-2.194,0.679-3.703,0.679c-1.888,0-3.42-0.578-4.598-1.733C97.341,46.777,96.753,45.277,96.753,43.432z"/>
</svg>
